<?xml version="1.0" standalone="no"?>
<!DOCTYPE svg PUBLIC "-//W3C//DTD SVG 20010904//EN"
 "http://www.w3.org/TR/2001/REC-SVG-20010904/DTD/svg10.dtd">
<svg version="1.0" xmlns="http://www.w3.org/2000/svg"
 width="3482.000000pt" height="969.000000pt" viewBox="0 0 3482.000000 969.000000"
 preserveAspectRatio="xMidYMid meet">
<g transform="translate(0.000000,969.000000) scale(0.100000,-0.100000)"
fill="#000000" stroke="none">
<path d="M4865 8263 c-232 -20 -551 -88 -771 -164 -1014 -349 -1795 -1197
-2053 -2229 -38 -150 -57 -247 -78 -400 -24 -176 -24 -606 0 -780 54 -388 152
-707 318 -1040 383 -766 1058 -1343 1882 -1609 924 -299 1957 -149 2762 400
239 163 518 419 690 634 137 171 279 394 375 589 159 324 246 599 302 961 26
166 36 578 19 752 -78 782 -416 1475 -980 2016 -432 413 -978 697 -1571 817
-212 43 -406 60 -647 58 -114 -1 -226 -3 -248 -5z m2030 -1085 c-18 -58 -220
-584 -330 -858 -406 -1010 -737 -1683 -981 -1996 -146 -187 -389 -349 -601
-400 -93 -23 -257 -23 -355 -1 -42 10 -121 40 -175 67 -102 52 -129 58 -155
38 -8 -7 -129 -175 -268 -373 -139 -198 -266 -374 -282 -391 -34 -37 -453
-269 -468 -259 -5 3 -10 14 -10 24 0 22 3598 4171 3617 4171 10 0 12 -7 8 -22z
m-427 -180 c7 -7 12 -18 12 -25 0 -20 -2360 -2738 -2381 -2741 -14 -3 -19 9
-28 65 -20 131 -22 201 -11 323 25 276 120 519 295 762 164 227 574 581 1150
993 213 153 930 635 944 635 4 0 12 -5 19 -12z"/>
<path d="M14703 6259 c-118 -58 -136 -232 -32 -312 106 -80 264 -41 308 76 15
40 14 123 -3 155 -19 36 -65 78 -99 91 -46 18 -128 13 -174 -10z"/>
<path d="M12620 5125 l0 -1115 140 0 140 0 0 120 0 119 70 -69 c117 -116 265
-176 455 -187 165 -9 341 31 473 108 74 44 217 188 261 262 73 125 111 275
111 443 0 393 -219 687 -585 785 -118 31 -310 31 -420 0 -122 -34 -201 -78
-282 -155 l-73 -69 0 437 0 436 -145 0 -145 0 0 -1115z m959 220 c199 -47 349
-210 386 -420 8 -44 14 -98 14 -120 0 -208 -115 -412 -279 -495 -90 -46 -150
-60 -255 -60 -162 0 -266 41 -376 150 -76 75 -122 159 -144 265 -52 246 38
494 220 610 49 32 146 71 195 78 60 10 180 6 239 -8z"/>
<path d="M17500 5125 l0 -1115 145 0 145 0 0 424 c0 439 6 539 41 631 30 79
91 158 159 203 97 65 144 77 305 77 136 0 142 -1 206 -31 36 -17 83 -48 104
-69 44 -45 91 -139 105 -214 6 -32 10 -250 10 -537 l0 -484 145 0 145 0 0 520
c0 587 -2 612 -71 759 -71 153 -212 263 -394 307 -102 25 -305 23 -406 -4
-103 -28 -206 -81 -284 -147 l-65 -56 0 426 0 425 -145 0 -145 0 0 -1115z"/>
<path d="M24527 6234 c-4 -4 -7 -198 -7 -432 l0 -424 -65 60 c-130 119 -279
173 -480 175 -437 5 -757 -277 -806 -708 -51 -464 228 -841 673 -906 236 -34
463 30 616 175 l72 69 0 -117 0 -116 145 0 145 0 -2 1113 -3 1112 -141 3 c-77
1 -143 -1 -147 -4z m-398 -889 c182 -43 326 -185 376 -371 10 -37 16 -100 16
-169 0 -126 -16 -198 -64 -289 -62 -118 -187 -216 -322 -252 -67 -18 -217 -18
-290 1 -87 23 -152 62 -225 135 -77 77 -113 140 -140 246 -51 197 -4 409 120
547 69 78 191 145 290 160 60 10 180 6 239 -8z"/>
<path d="M26870 5775 l0 -175 -135 0 -136 0 3 -117 3 -118 133 -3 132 -3 0
-457 c1 -501 6 -568 56 -671 56 -114 168 -196 309 -226 165 -35 380 2 472 81
l22 19 -42 95 c-23 53 -46 97 -50 99 -4 1 -33 -10 -63 -25 -66 -32 -182 -43
-252 -24 -56 15 -123 80 -140 136 -9 30 -12 168 -12 508 l0 466 225 0 225 0 0
120 0 120 -225 0 -225 0 0 175 0 175 -150 0 -150 0 0 -175z"/>
<path d="M10275 5609 c-190 -27 -340 -111 -427 -239 -16 -24 -17 -21 -17 103
l-1 127 -140 0 -140 0 0 -795 0 -795 144 0 144 0 5 463 c4 483 5 492 51 602
66 157 227 255 423 258 l93 2 0 143 0 142 -37 -1 c-21 -1 -65 -5 -98 -10z"/>
<path d="M11288 5609 c-428 -63 -702 -377 -702 -804 0 -494 376 -840 883 -812
452 25 771 361 771 812 0 363 -209 659 -538 765 -139 45 -282 59 -414 39z
m260 -264 c184 -44 327 -184 377 -371 10 -37 16 -100 16 -169 0 -180 -45 -301
-156 -410 -101 -101 -214 -145 -370 -145 -163 0 -267 41 -375 150 -77 77 -113
140 -140 246 -51 197 -4 409 120 547 69 78 191 145 290 160 60 10 180 6 238
-8z"/>
<path d="M16195 5610 c-161 -25 -288 -84 -382 -176 l-63 -62 0 114 0 114 -140
0 -140 0 0 -795 0 -795 145 0 145 0 0 424 c0 439 6 539 41 631 30 79 91 158
159 203 97 65 144 77 305 77 136 0 142 -1 206 -31 36 -17 83 -48 104 -69 44
-45 91 -139 105 -214 6 -32 10 -250 10 -537 l0 -484 145 0 145 0 0 520 c0 587
-2 612 -71 759 -71 151 -214 264 -389 306 -82 19 -247 27 -325 15z"/>
<path d="M20088 5609 c-428 -63 -702 -377 -702 -804 0 -494 376 -840 883 -812
452 25 771 361 771 812 0 363 -209 659 -538 765 -139 45 -282 59 -414 39z
m260 -264 c184 -44 327 -184 377 -371 10 -37 16 -100 16 -169 0 -180 -45 -301
-156 -410 -101 -101 -214 -145 -370 -145 -163 0 -267 41 -375 150 -77 77 -113
140 -140 246 -51 197 -4 409 120 547 69 78 191 145 290 160 60 10 180 6 238
-8z"/>
<path d="M21978 5609 c-428 -63 -702 -377 -702 -804 0 -494 376 -840 883 -812
452 25 771 361 771 812 0 363 -209 659 -538 765 -139 45 -282 59 -414 39z
m260 -264 c184 -44 327 -184 377 -371 10 -37 16 -100 16 -169 0 -180 -45 -301
-156 -410 -101 -101 -214 -145 -370 -145 -163 0 -267 41 -375 150 -77 77 -113
140 -140 246 -51 197 -4 409 120 547 69 78 191 145 290 160 60 10 180 6 238
-8z"/>
<path d="M25720 5610 c-222 -28 -410 -133 -479 -267 -88 -173 -59 -381 70
-497 94 -84 202 -122 504 -175 207 -37 260 -52 313 -91 52 -38 65 -62 65 -125
0 -129 -90 -191 -308 -210 -182 -16 -465 53 -594 144 l-29 21 -62 -116 c-71
-135 -77 -120 65 -189 291 -141 733 -152 978 -23 75 40 175 137 204 198 49
105 53 235 12 344 -14 38 -36 70 -77 109 -98 93 -167 119 -491 182 -101 20
-212 45 -245 56 -149 45 -206 167 -132 279 92 139 463 157 712 35 56 -27 87
-38 93 -31 17 23 111 204 111 215 0 27 -193 99 -339 126 -104 19 -285 26 -371
15z"/>
<path d="M28558 5609 c-428 -63 -702 -377 -702 -804 0 -494 376 -840 883 -812
452 25 771 361 771 812 0 363 -209 659 -538 765 -139 45 -282 59 -414 39z
m260 -264 c184 -44 327 -184 377 -371 10 -37 16 -100 16 -169 0 -180 -45 -301
-156 -410 -101 -101 -214 -145 -370 -145 -163 0 -267 41 -375 150 -77 77 -113
140 -140 246 -51 197 -4 409 120 547 69 78 191 145 290 160 60 10 180 6 238
-8z"/>
<path d="M30615 5609 c-190 -27 -340 -111 -427 -239 -16 -24 -17 -21 -17 103
l-1 127 -140 0 -140 0 0 -795 0 -795 144 0 144 0 5 463 c4 483 5 492 51 602
66 157 227 255 423 258 l93 2 0 143 0 142 -37 -1 c-21 -1 -65 -5 -98 -10z"/>
<path d="M31604 5610 c-406 -57 -677 -379 -677 -805 0 -395 229 -692 608 -787
127 -32 372 -32 490 1 138 37 281 117 359 199 l28 30 -77 91 c-43 50 -80 91
-82 91 -2 0 -30 -21 -61 -47 -65 -53 -173 -106 -250 -122 -75 -16 -246 -13
-321 4 -180 43 -330 178 -381 344 -36 113 -113 101 625 101 l645 0 0 94 c0
389 -226 698 -574 786 -92 23 -244 33 -332 20z m232 -251 c194 -35 351 -197
389 -401 l7 -38 -506 0 c-482 0 -506 1 -506 18 0 30 30 123 57 177 32 63 132
162 201 198 94 51 234 69 358 46z"/>
<path d="M14650 4805 l0 -795 145 0 145 0 0 795 0 795 -145 0 -145 0 0 -795z"/>
</g>
</svg>
